<svg height="512pt" viewBox="-35 0 512 512" width="512pt" xmlns="http://www.w3.org/2000/svg"><path d="m267.335938 13.128906c-96.335938 13.484375-164.660157 70.492188-164.660157 167.890625 0 120.121094 87.445313 260.972657 164.660157 306.207031 77.21875-45.234374 164.664062-186.085937 164.664062-306.207031 0-97.398437-68.324219-154.410156-164.664062-167.890625zm0 0" fill="#e063c8"/><path d="m221 512c-22.195312 0-47.855469-11.023438-74.199219-31.878906-24.371093-19.289063-48.816406-46.429688-70.691406-78.480469-22.328125-32.710937-41.078125-69.289063-54.222656-105.773437-14.523438-40.308594-21.886719-78.949219-21.886719-114.847657 0-56.664062 22.28125-103.558593 64.4375-135.617187 39.058594-29.703125 93.195312-45.402344 156.5625-45.402344s117.503906 15.699219 156.5625 45.402344c42.15625 32.058594 64.4375 78.953125 64.4375 135.617187 0 35.898438-7.363281 74.539063-21.886719 114.847657-13.144531 36.484374-31.894531 73.058593-54.222656 105.773437-21.875 32.050781-46.320313 59.1875-70.691406 78.480469-26.34375 20.855468-52.003907 31.878906-74.199219 31.878906zm0-492c-97.167969 0-201 42.300781-201 161.019531 0 64.457031 27.148438 142.71875 72.625 209.34375 42.140625 61.742188 92.53125 101.636719 128.375 101.636719s86.234375-39.894531 128.375-101.636719c45.476562-66.625 72.625-144.886719 72.625-209.34375 0-118.71875-103.832031-161.019531-201-161.019531zm0 0"/><path d="m222.726562 403.234375-33.605468 49.875 16.605468-93.363281h-34.4375l68.355469-98.746094-7.242187 71.011719h38.308594l-13.273438 19.699219zm0 0" fill="#6767ef"/><path d="m240.214844 387.261719c-1.917969 0-3.855469-.550781-5.570313-1.703125-4.582031-3.082032-5.800781-9.292969-2.71875-13.878906l.097657-.144532c3.082031-4.585937 9.292968-5.804687 13.878906-2.722656 4.582031 3.082031 5.800781 9.292969 2.71875 13.878906l-.097656.148438c-1.929688 2.871094-5.089844 4.421875-8.308594 4.421875zm0 0"/><path d="m279.539062 327.3125c-1.734374-3.261719-5.128906-5.300781-8.824218-5.300781h-27.238282l6.117188-59.996094c.5625-5.496094-3.4375-10.402344-8.933594-10.964844-3.75-.378906-7.226562 1.363281-9.234375 4.257813l-.027343.035156c-.007813.011719-.019532.027344-.027344.042969l-68.304688 98.667969c-2.117187 3.058593-2.363281 7.039062-.636718 10.335937 1.726562 3.292969 5.140624 5.355469 8.859374 5.355469h22.5l-14.515624 81.613281c-.828126 4.652344 1.714843 9.246094 6.09375 11.019531 1.222656.492188 2.492187.730469 3.75.730469 3.246093 0 6.390624-1.585937 8.296874-4.414063l33.605469-49.875c3.085938-4.582031 1.875-10.792968-2.707031-13.878906-4.582031-3.085937-10.792969-1.875-13.882812 2.703125l-7.1875 10.667969 8.328124-46.8125c.519532-2.914062-.28125-5.90625-2.179687-8.175781-1.902344-2.265625-4.707031-3.578125-7.664063-3.578125h-15.355468l35.382812-51.109375-3.300781 32.359375c-.289063 2.8125.632813 5.617187 2.527344 7.714844 1.894531 2.101562 4.59375 3.296874 7.421875 3.296874h19.511718l-2.769531 4.113282c-3.085937 4.582031-1.875 10.792968 2.707031 13.882812 1.710938 1.152344 3.65625 1.707032 5.578126 1.707032 3.214843 0 6.371093-1.546876 8.300781-4.414063l13.273437-19.699219c2.066406-3.066406 2.273438-7.023437.535156-10.285156zm0 0"/><path d="m180.671875 228.765625c-27.570313 0-50-22.429687-50-50s22.429687-50 50-50c27.566406 0 50 22.429687 50 50s-22.433594 50-50 50zm0-80c-16.542969 0-30 13.457031-30 30 0 16.539063 13.457031 30 30 30 16.539063 0 30-13.460937 30-30 0-16.542969-13.460937-30-30-30zm0 0"/><path d="m283.210938 228.765625c-13.355469 0-25.910157-5.203125-35.355469-14.648437-19.496094-19.492188-19.496094-51.214844 0-70.707032 9.445312-9.445312 22-14.644531 35.355469-14.644531 13.355468 0 25.910156 5.199219 35.355468 14.644531 3.90625 3.902344 3.90625 10.234375 0 14.140625s-10.238281 3.90625-14.140625 0c-5.667969-5.664062-13.203125-8.785156-21.214843-8.785156-8.011719 0-15.546876 3.121094-21.214844 8.785156-11.695313 11.699219-11.695313 30.730469 0 42.425781 5.667968 5.667969 13.203125 8.789063 21.214844 8.789063 8.015624 0 15.546874-3.121094 21.214843-8.789063 3.902344-3.902343 10.234375-3.902343 14.140625 0 3.90625 3.90625 3.90625 10.238282 0 14.144532-9.441406 9.441406-22 14.644531-35.355468 14.644531zm0 0"/><path d="m128.683594 158.792969c0-16.488281-13.417969-29.90625-29.910156-29.90625h-36.171876c-5.523437 0-10 4.476562-10 10v79.753906c0 5.523437 4.476563 10 10 10 5.523438 0 10-4.476563 10-10v-24.707031l31.78125 31.78125c1.953126 1.949218 4.511719 2.925781 7.070313 2.925781s5.117187-.976563 7.070313-2.925781c3.90625-3.90625 3.90625-10.238282 0-14.144532l-22.867188-22.867187h3.117188c16.492187 0 29.910156-13.417969 29.910156-29.910156zm-56.082032-9.90625h26.171876c5.464843 0 9.910156 4.445312 9.910156 9.90625 0 5.464843-4.445313 9.910156-9.910156 9.910156h-26.171876zm0 0"/><path d="m386.46875 212.542969-33.703125-33.703125 33.628906-32.933594c3.945313-3.863281 4.011719-10.191406.148438-14.140625-3.863281-3.945313-10.195313-4.011719-14.140625-.148437l-23.855469 23.359374v-16.214843c0-5.523438-4.476563-10-10-10s-10 4.476562-10 10v80.851562c0 5.523438 4.476563 10 10 10s10-4.476562 10-10v-16.707031l23.78125 23.78125c1.953125 1.953125 4.511719 2.925781 7.070313 2.925781 2.558593 0 5.121093-.972656 7.070312-2.925781 3.90625-3.90625 3.90625-10.238281 0-14.144531zm0 0"/></svg>